<?xml version="1.0" encoding="utf-8"?>
<!-- Svg Vector Icons : http://www.onlinewebfonts.com/icon -->
<!DOCTYPE svg PUBLIC "-//W3C//DTD SVG 1.1//EN" "http://www.w3.org/Graphics/SVG/1.1/DTD/svg11.dtd">
<svg version="1.1" xmlns="http://www.w3.org/2000/svg" xmlns:xlink="http://www.w3.org/1999/xlink" x="0px" y="0px" viewBox="0 0 1000 1000" enable-background="new 0 0 1000 1000" xml:space="preserve">
<metadata> Svg Vector Icons : http://www.onlinewebfonts.com/icon </metadata>
<g><path d="M499.9,10c-202.8,0-367.2,164.4-367.2,367.2c0,0-0.6,10.8,1.6,31.2c2.5,29.9,8.6,58.7,17.9,86.1c29.5,101.3,103,262.9,286.3,464.9c0,0,57.4,68.9,120.6,0c0,0,186.6-223.8,269.4-418.9c15.7-31.5,26.9-65.4,33-101.2c4.5-22,6.6-42.9,5.6-62.1C867.1,174.4,702.7,10,499.9,10z M499.4,530.4c-84.4,0-152.8-68.4-152.8-152.8c0-84.4,68.4-152.8,152.8-152.8s152.8,68.4,152.8,152.8C652.2,462,583.8,530.4,499.4,530.4z" fill="currentColor"/></g>
</svg>