<svg xmlns="http://www.w3.org/2000/svg" width="32" height="32" enable-background="new 0 0 32 32" viewBox="0 0 32 32"><path d="M 6.9863281 1.6035156 A 3 3 0 0 0 3.9863281 4.6035156 A 3 3 0 0 0 6.9863281 7.6035156 A 3 3 0 0 0 9.9863281 4.6035156 A 3 3 0 0 0 6.9863281 1.6035156 z M 6.5 8.5019531 C 4.8432617 8.5019531 3.5 9.8447268 3.5 11.501953 L 3.5 19.396484 C 3.5 21.05371 4.8432617 22.396484 6.5 22.396484 L 11.5 22.396484 L 11.5 28.896484 C 11.5 29.724609 12.171387 30.396484 13 30.396484 C 13.828613 30.396484 14.5 29.724609 14.5 28.896484 L 14.5 20.896484 C 14.5 20.068359 13.828613 19.396484 13 19.396484 L 9.5 19.396484 L 9.5 14.576172 L 10.150391 14.992188 C 10.39795 15.150391 10.679199 15.228516 10.958984 15.228516 C 11.30664 15.228516 11.651367 15.109375 11.929688 14.873047 L 14.283203 12.873047 C 14.914551 12.335938 14.9917 11.389648 14.455078 10.757812 C 13.918457 10.12793 12.974609 10.050781 12.341797 10.585938 L 10.833984 11.867188 L 9.4472656 10.980469 C 9.199707 9.5728152 7.9783325 8.5019531 6.5 8.5019531 z M 20.601562 9.2246094 C 20.058595 9.1201172 19.53711 9.4863282 19.4375 10.029297 L 18.822266 13.396484 L 14.5 13.396484 C 13.947754 13.396484 13.5 13.843749 13.5 14.396484 C 13.5 14.949218 13.947754 15.396484 14.5 15.396484 L 19.65625 15.396484 C 20.13916 15.396484 20.553711 15.051758 20.640625 14.576172 L 21.40625 10.388672 C 21.50537 9.8457031 21.14502 9.3232422 20.601562 9.2246094 z M 1.5019531 14.390625 C 0.94970703 14.390625 0.50195312 14.835937 0.50195312 15.388672 L 0.5 24.388672 L 0.5 24.396484 C 0.5 24.948242 0.9472656 25.400391 1.5 25.400391 C 1.513733 25.400391 1.5254515 25.396484 1.5390625 25.396484 L 4.5 25.396484 L 4.5 28.09375 L 2.6875 29.492188 C 2.4692383 29.661133 2.4243163 29.976563 2.59375 30.195312 C 2.691895 30.322266 2.8388672 30.388672 2.9882812 30.388672 C 3.0952149 30.388672 3.209961 30.353515 3.3007812 30.283203 L 4.5 29.359375 L 4.5 29.888672 C 4.5 30.165039 4.7236328 30.388672 5 30.388672 C 5.2763672 30.388672 5.5 30.165039 5.5 29.888672 L 5.5 29.359375 L 6.6875 30.283203 C 6.77832 30.353513 6.8813477 30.388672 6.9882812 30.388672 C 7.1376954 30.388672 7.284668 30.322261 7.3828125 30.195312 C 7.5522461 29.976562 7.5190433 29.661133 7.3007812 29.492188 L 5.5 28.09375 L 5.5 25.396484 L 8.4863281 25.396484 C 9.0385742 25.396484 9.4863281 24.949219 9.4863281 24.396484 C 9.4863281 23.84375 9.0385742 23.396484 8.4863281 23.396484 L 2.5 23.396484 L 2.5019531 15.392578 C 2.5019531 14.840821 2.0546875 14.390625 1.5019531 14.390625 z M 13.5 16.396484 C 12.947754 16.396484 12.5 16.843749 12.5 17.396484 C 12.5 17.949218 12.947754 18.396484 13.5 18.396484 L 15.5 18.396484 L 15.5 29.396484 C 15.5 29.949218 15.947754 30.396484 16.5 30.396484 C 17.052246 30.396484 17.5 29.949218 17.5 29.396484 L 17.5 18.396484 L 26.5 18.396484 L 26.5 29.396484 C 26.5 29.949218 26.947754 30.396484 27.5 30.396484 C 28.052246 30.396484 28.5 29.949218 28.5 29.396484 L 28.5 18.396484 L 30.5 18.396484 C 31.052246 18.396484 31.5 17.949218 31.5 17.396484 C 31.5 16.843749 31.052246 16.396484 30.5 16.396484 L 13.5 16.396484 z " fill="currentColor"/></svg>